<svg className="w-40 h-7" viewBox="0 0 167 34" fill="#001E66" xmlns="http://www.w3.org/2000/svg">
  <path d="M67.6758 11.8773V20.4983C67.6758 21.1998 67.741 22.2859 68.5007 23.0223C68.8307 23.3371 69.4234 23.7587 70.4785 23.7587C71.3686 23.7587 72.0611 23.444 72.4889 23.0223C73.1814 22.3209 73.2791 21.2697 73.2791 20.4983V11.8773H78.027V20.99C78.027 22.7775 77.862 24.4602 76.3792 26.0009C74.6988 27.7535 72.2261 28.0333 70.4785 28.0333C68.6657 28.0333 66.2256 27.7535 64.5452 26.0009C63.1927 24.6001 62.93 23.0223 62.93 21.3047V11.8773H67.6758Z" fill="#001E66" />
  <path d="M85.8364 15.942V27.5067H80.8401V15.942V11.8773V6.82935H85.8364V11.8773H88.9243V15.942H85.8364Z" fill="#001E66" />
  <path d="M105.537 25.5093C104.219 26.9101 101.977 28.0332 99.1086 28.0332C96.2408 28.0332 93.9982 26.9122 92.6804 25.5093C91.1976 23.9315 90.4725 21.6894 90.4725 19.692C90.4725 17.6946 91.1976 15.4504 92.6804 13.8747C93.9982 12.4738 96.2408 11.3507 99.1086 11.3507C101.977 11.3507 104.219 12.4718 105.537 13.8747C107.02 15.4524 107.745 17.6946 107.745 19.692C107.745 21.6894 107.022 23.9315 105.537 25.5093ZM96.4384 16.7484C95.7458 17.4848 95.3507 18.431 95.3507 19.692C95.3507 21.1298 95.8782 22.0411 96.4384 22.6356C97.0311 23.2671 97.8886 23.7567 99.1412 23.7567C100.196 23.7567 101.086 23.372 101.779 22.6356C102.471 21.8992 102.867 20.9529 102.867 19.692C102.867 18.431 102.471 17.4848 101.779 16.7484C101.086 16.0119 100.196 15.6273 99.1086 15.6273C98.021 15.6273 97.1309 16.0119 96.4384 16.7484Z" fill="#001E66" />
  <path d="M115.26 15.942V27.5067H110.264V15.942V11.8773V6.82935H115.26V11.8773H118.348V15.942H115.26Z" fill="#001E66" />
  <path d="M135.649 20.5683H124.67C124.67 21.4096 124.968 22.5307 125.561 23.2321C126.286 24.0735 127.276 24.2133 128.001 24.2133C128.693 24.2133 129.418 24.0735 129.913 23.7567C129.978 23.7217 130.541 23.337 130.936 22.4607L135.419 22.9503C134.759 25.1575 133.441 26.3156 132.584 26.8751C131.166 27.7864 129.583 28.0312 127.936 28.0312C125.728 28.0312 123.782 27.6116 122.067 25.789C120.782 24.4232 119.859 22.3538 119.859 19.7619C119.859 17.5198 120.617 15.2056 122.102 13.5929C123.882 11.7004 126.09 11.3507 127.74 11.3507C129.388 11.3507 131.763 11.6654 133.576 13.6978C135.323 15.6602 135.653 18.1142 135.653 20.0417V20.5683H135.649ZM131.264 17.5547C131.231 17.4148 131.001 16.4336 130.308 15.7322C129.781 15.2056 129.023 14.8559 128.066 14.8559C126.846 14.8559 126.121 15.3825 125.66 15.8721C125.298 16.2917 124.968 16.8533 124.835 17.5547H131.264Z" fill="#001E66" />
  <path d="M143.281 6.82935V27.5067H138.285V6.82935H143.281Z" fill="#001E66" />
  <path d="M151.801 11.8773V27.5087H146.805V11.8773H151.801Z" fill="#001E66" />
  <path d="M167 16.8183C165.786 15.8021 164.535 15.6273 163.739 15.6273C162.177 15.6273 161.24 16.3987 160.894 16.7484C160.234 17.4148 159.749 18.431 159.749 19.692C159.749 20.848 160.166 21.8292 160.79 22.4957C161.554 23.337 162.698 23.7567 163.808 23.7567C164.676 23.7567 165.855 23.5119 167 22.5307V27.087C165.682 27.8234 164.432 28.0332 163.044 28.0332C160.441 28.0332 158.464 27.087 157.042 25.6841C155.863 24.5281 154.612 22.5657 154.612 19.7269C154.612 17.0631 155.722 14.9608 157.18 13.5579C158.916 11.9102 160.963 11.3507 163.079 11.3507C164.434 11.3507 165.682 11.5955 167 12.227V16.8183Z" fill="#001E66" />
  <path d="M55.1209 11.8773V12.9017C53.9375 11.9802 52.4872 11.3507 50.7641 11.3507C48.491 11.3507 46.3625 12.3134 44.9693 13.7225C43.8694 14.8333 42.5475 16.7607 42.5475 19.7228C42.5475 22.687 43.8674 24.6124 44.9693 25.7232C46.3625 27.1302 48.491 28.095 50.7641 28.095C52.4872 28.095 53.9375 27.4655 55.1209 26.544V26.5584V27.7165H60.1172V11.8773H55.1209ZM54.2185 22.6006C53.5586 23.2671 52.6217 23.6867 51.6155 23.6867C50.4361 23.6867 49.3607 23.1951 48.6661 22.4607C48.214 21.9712 47.6253 21.0599 47.6253 19.657C47.6253 18.2541 48.2506 17.3449 48.77 16.8183C49.4299 16.1518 50.4361 15.6972 51.5116 15.6972C52.4139 15.6972 53.524 16.0469 54.2878 16.7833C55.017 17.4848 55.4325 18.5359 55.4325 19.657C55.4325 20.9879 54.8764 21.9691 54.2185 22.6006Z" fill="#001E66" />
  <path d="M149.302 3.88562C150.933 3.88562 152.216 5.18155 152.216 6.82924C152.216 8.47692 150.933 9.77285 149.302 9.77285C147.67 9.77285 146.387 8.47692 146.387 6.82924C146.387 5.18155 147.67 3.88562 149.302 3.88562Z" fill="#001E66" />
  <path d="M29.5077 3.60182L19.7981 0.769287V33.8814L29.5056 31.0488V3.60182H29.5077Z" fill="#001E66" />
  <path d="M6.53416 8.97688C2.81898 9.31834 0 12.7001 0 17.3243C0 21.9485 2.81898 25.3303 6.53416 25.6718C10.2942 26.0173 13.5062 22.9359 13.5062 17.3243C13.5062 11.7127 10.2921 8.63129 6.53416 8.97688Z" fill="#001E66" />
</svg>
